<svg xmlns="http://www.w3.org/2000/svg" width="5016" height="200">
    <rect x="0" y="131" width="20" height="19" fill="#3cab9c"/>
    <rect x="22" y="134" width="20" height="16" fill="#3cab9c"/>
    <rect x="44" y="139" width="20" height="11" fill="#3cab9c"/>
    <rect x="66" y="128" width="20" height="22" fill="#3cab9c"/>
    <rect x="88" y="129" width="20" height="21" fill="#3cab9c"/>
    <rect x="110" y="139" width="20" height="11" fill="#3cab9c"/>
    <rect x="132" y="132" width="20" height="18" fill="#3cab9c"/>
    <rect x="154" y="140" width="20" height="10" fill="#3cab9c"/>
    <rect x="176" y="139" width="20" height="11" fill="#3cab9c"/>
    <rect x="198" y="131" width="20" height="19" fill="#3cab9c"/>
    <rect x="220" y="128" width="20" height="22" fill="#3cab9c"/>
    <rect x="242" y="133" width="20" height="17" fill="#3cab9c"/>
    <rect x="264" y="131" width="20" height="19" fill="#3cab9c"/>
    <rect x="286" y="125" width="20" height="25" fill="#3cab9c"/>
    <rect x="308" y="139" width="20" height="11" fill="#3cab9c"/>
    <rect x="330" y="139" width="20" height="11" fill="#3cab9c"/>
    <rect x="352" y="139" width="20" height="11" fill="#3cab9c"/>
    <rect x="374" y="133" width="20" height="17" fill="#3cab9c"/>
    <rect x="396" y="134" width="20" height="16" fill="#3cab9c"/>
    <rect x="418" y="130" width="20" height="20" fill="#3cab9c"/>
    <rect x="440" y="129" width="20" height="21" fill="#3cab9c"/>
    <rect x="462" y="129" width="20" height="21" fill="#3cab9c"/>
    <rect x="484" y="137" width="20" height="13" fill="#3cab9c"/>
    <rect x="506" y="134" width="20" height="16" fill="#3cab9c"/>
    <rect x="528" y="137" width="20" height="13" fill="#3cab9c"/>
    <rect x="550" y="138" width="20" height="12" fill="#3cab9c"/>
    <rect x="572" y="133" width="20" height="17" fill="#3cab9c"/>
    <rect x="594" y="139" width="20" height="11" fill="#3cab9c"/>
    <rect x="616" y="139" width="20" height="11" fill="#3cab9c"/>
    <rect x="638" y="136" width="20" height="14" fill="#3cab9c"/>
    <rect x="660" y="136" width="20" height="14" fill="#3cab9c"/>
    <rect x="682" y="130" width="20" height="20" fill="#3cab9c"/>
    <rect x="704" y="139" width="20" height="11" fill="#3cab9c"/>
    <rect x="726" y="135" width="20" height="15" fill="#3cab9c"/>
    <rect x="748" y="138" width="20" height="12" fill="#3cab9c"/>
    <rect x="770" y="139" width="20" height="11" fill="#3cab9c"/>
    <rect x="792" y="133" width="20" height="17" fill="#3cab9c"/>
    <rect x="814" y="129" width="20" height="21" fill="#3cab9c"/>
    <rect x="836" y="133" width="20" height="17" fill="#3cab9c"/>
    <rect x="858" y="130" width="20" height="20" fill="#3cab9c"/>
    <rect x="880" y="139" width="20" height="11" fill="#3cab9c"/>
    <rect x="902" y="134" width="20" height="16" fill="#3cab9c"/>
    <rect x="924" y="135" width="20" height="15" fill="#3cab9c"/>
    <rect x="946" y="134" width="20" height="16" fill="#3cab9c"/>
    <rect x="968" y="132" width="20" height="18" fill="#3cab9c"/>
    <rect x="990" y="129" width="20" height="21" fill="#3cab9c"/>
    <rect x="1012" y="140" width="20" height="10" fill="#3cab9c"/>
    <rect x="1034" y="136" width="20" height="14" fill="#3cab9c"/>
    <rect x="1056" y="139" width="20" height="11" fill="#3cab9c"/>
    <rect x="1078" y="139" width="20" height="11" fill="#3cab9c"/>
    <rect x="1100" y="129" width="20" height="21" fill="#3cab9c"/>
    <rect x="1122" y="139" width="20" height="11" fill="#3cab9c"/>
    <rect x="1144" y="139" width="20" height="11" fill="#3cab9c"/>
    <rect x="1166" y="137" width="20" height="13" fill="#3cab9c"/>
    <rect x="1188" y="139" width="20" height="11" fill="#3cab9c"/>
    <rect x="1210" y="128" width="20" height="22" fill="#3cab9c"/>
    <rect x="1232" y="139" width="20" height="11" fill="#3cab9c"/>
    <rect x="1254" y="140" width="20" height="10" fill="#3cab9c"/>
    <rect x="1276" y="138" width="20" height="12" fill="#3cab9c"/>
    <rect x="1298" y="131" width="20" height="19" fill="#3cab9c"/>
    <rect x="1320" y="134" width="20" height="16" fill="#3cab9c"/>
    <rect x="1342" y="140" width="20" height="10" fill="#3cab9c"/>
    <rect x="1364" y="137" width="20" height="13" fill="#3cab9c"/>
    <rect x="1386" y="132" width="20" height="18" fill="#3cab9c"/>
    <rect x="1408" y="136" width="20" height="14" fill="#3cab9c"/>
    <rect x="1430" y="139" width="20" height="11" fill="#3cab9c"/>
    <rect x="1452" y="139" width="20" height="11" fill="#3cab9c"/>
    <rect x="1474" y="139" width="20" height="11" fill="#3cab9c"/>
    <rect x="1496" y="130" width="20" height="20" fill="#3cab9c"/>
    <rect x="1518" y="133" width="20" height="17" fill="#3cab9c"/>
    <rect x="1540" y="137" width="20" height="13" fill="#3cab9c"/>
    <rect x="1562" y="134" width="20" height="16" fill="#3cab9c"/>
    <rect x="1584" y="140" width="20" height="10" fill="#3cab9c"/>
    <rect x="1606" y="131" width="20" height="19" fill="#3cab9c"/>
    <rect x="1628" y="129" width="20" height="21" fill="#3cab9c"/>
    <rect x="1650" y="139" width="20" height="11" fill="#3cab9c"/>
    <rect x="1672" y="135" width="20" height="15" fill="#3cab9c"/>
    <rect x="1694" y="130" width="20" height="20" fill="#3cab9c"/>
    <rect x="1716" y="134" width="20" height="16" fill="#3cab9c"/>
    <rect x="1738" y="131" width="20" height="19" fill="#3cab9c"/>
    <rect x="1760" y="132" width="20" height="18" fill="#3cab9c"/>
    <rect x="1782" y="140" width="20" height="10" fill="#3cab9c"/>
    <rect x="1804" y="139" width="20" height="11" fill="#3cab9c"/>
    <rect x="1826" y="131" width="20" height="19" fill="#3cab9c"/>
    <rect x="1848" y="128" width="20" height="22" fill="#3cab9c"/>
    <rect x="1870" y="130" width="20" height="20" fill="#3cab9c"/>
    <rect x="1892" y="133" width="20" height="17" fill="#3cab9c"/>
    <rect x="1914" y="139" width="20" height="11" fill="#3cab9c"/>
    <rect x="1936" y="139" width="20" height="11" fill="#3cab9c"/>
    <rect x="1958" y="130" width="20" height="20" fill="#3cab9c"/>
    <rect x="1980" y="131" width="20" height="19" fill="#3cab9c"/>
    <rect x="2002" y="136" width="20" height="14" fill="#3cab9c"/>
    <rect x="2024" y="140" width="20" height="10" fill="#3cab9c"/>
    <rect x="2046" y="129" width="20" height="21" fill="#3cab9c"/>
    <rect x="2068" y="129" width="20" height="21" fill="#3cab9c"/>
    <rect x="2090" y="127" width="20" height="23" fill="#3cab9c"/>
    <rect x="2112" y="127" width="20" height="23" fill="#3cab9c"/>
    <rect x="2134" y="129" width="20" height="21" fill="#3cab9c"/>
    <rect x="2156" y="126" width="20" height="24" fill="#3cab9c"/>
    <rect x="2178" y="130" width="20" height="20" fill="#3cab9c"/>
    <rect x="2200" y="138" width="20" height="12" fill="#3cab9c"/>
    <rect x="2222" y="139" width="20" height="11" fill="#3cab9c"/>
    <rect x="2244" y="126" width="20" height="24" fill="#3cab9c"/>
    <rect x="2266" y="134" width="20" height="16" fill="#3cab9c"/>
    <rect x="2288" y="127" width="20" height="23" fill="#3cab9c"/>
    <rect x="2310" y="125" width="20" height="25" fill="#3cab9c"/>
    <rect x="2332" y="131" width="20" height="19" fill="#3cab9c"/>
    <rect x="2354" y="139" width="20" height="11" fill="#3cab9c"/>
    <rect x="2376" y="127" width="20" height="23" fill="#3cab9c"/>
    <rect x="2398" y="139" width="20" height="11" fill="#3cab9c"/>
    <rect x="2420" y="133" width="20" height="17" fill="#3cab9c"/>
    <rect x="2442" y="139" width="20" height="11" fill="#3cab9c"/>
    <rect x="2464" y="134" width="20" height="16" fill="#3cab9c"/>
    <rect x="2486" y="134" width="20" height="16" fill="#3cab9c"/>
    <rect x="2508" y="131" width="20" height="19" fill="#3cab9c"/>
    <rect x="2530" y="139" width="20" height="11" fill="#3cab9c"/>
    <rect x="2552" y="134" width="20" height="16" fill="#3cab9c"/>
    <rect x="2574" y="140" width="20" height="10" fill="#3cab9c"/>
    <rect x="2596" y="132" width="20" height="18" fill="#3cab9c"/>
    <rect x="2618" y="129" width="20" height="21" fill="#3cab9c"/>
    <rect x="2640" y="134" width="20" height="16" fill="#3cab9c"/>
    <rect x="2662" y="129" width="20" height="21" fill="#3cab9c"/>
    <rect x="2684" y="130" width="20" height="20" fill="#3cab9c"/>
    <rect x="2706" y="133" width="20" height="17" fill="#3cab9c"/>
    <rect x="2728" y="135" width="20" height="15" fill="#3cab9c"/>
    <rect x="2750" y="139" width="20" height="11" fill="#3cab9c"/>
    <rect x="2772" y="128" width="20" height="22" fill="#3cab9c"/>
    <rect x="2794" y="137" width="20" height="13" fill="#3cab9c"/>
    <rect x="2816" y="135" width="20" height="15" fill="#3cab9c"/>
    <rect x="2838" y="134" width="20" height="16" fill="#3cab9c"/>
    <rect x="2860" y="139" width="20" height="11" fill="#3cab9c"/>
    <rect x="2882" y="130" width="20" height="20" fill="#3cab9c"/>
    <rect x="2904" y="134" width="20" height="16" fill="#3cab9c"/>
    <rect x="2926" y="137" width="20" height="13" fill="#3cab9c"/>
    <rect x="2948" y="138" width="20" height="12" fill="#3cab9c"/>
    <rect x="2970" y="139" width="20" height="11" fill="#3cab9c"/>
    <rect x="2992" y="132" width="20" height="18" fill="#3cab9c"/>
    <rect x="3014" y="140" width="20" height="10" fill="#3cab9c"/>
    <rect x="3036" y="138" width="20" height="12" fill="#3cab9c"/>
    <rect x="3058" y="134" width="20" height="16" fill="#3cab9c"/>
    <rect x="3080" y="133" width="20" height="17" fill="#3cab9c"/>
    <rect x="3102" y="129" width="20" height="21" fill="#3cab9c"/>
    <rect x="3124" y="127" width="20" height="23" fill="#3cab9c"/>
    <rect x="3146" y="127" width="20" height="23" fill="#3cab9c"/>
    <rect x="3168" y="126" width="20" height="24" fill="#3cab9c"/>
    <rect x="3190" y="139" width="20" height="11" fill="#3cab9c"/>
    <rect x="3212" y="136" width="20" height="14" fill="#3cab9c"/>
    <rect x="3234" y="126" width="20" height="24" fill="#3cab9c"/>
    <rect x="3256" y="140" width="20" height="10" fill="#3cab9c"/>
    <rect x="3278" y="126" width="20" height="24" fill="#3cab9c"/>
    <rect x="3300" y="127" width="20" height="23" fill="#3cab9c"/>
    <rect x="3322" y="139" width="20" height="11" fill="#3cab9c"/>
    <rect x="3344" y="139" width="20" height="11" fill="#3cab9c"/>
    <rect x="3366" y="138" width="20" height="12" fill="#3cab9c"/>
    <rect x="3388" y="130" width="20" height="20" fill="#3cab9c"/>
    <rect x="3410" y="139" width="20" height="11" fill="#3cab9c"/>
    <rect x="3432" y="138" width="20" height="12" fill="#3cab9c"/>
    <rect x="3454" y="131" width="20" height="19" fill="#3cab9c"/>
    <rect x="3476" y="135" width="20" height="15" fill="#3cab9c"/>
    <rect x="3498" y="127" width="20" height="23" fill="#3cab9c"/>
    <rect x="3520" y="139" width="20" height="11" fill="#3cab9c"/>
    <rect x="3542" y="137" width="20" height="13" fill="#3cab9c"/>
    <rect x="3564" y="131" width="20" height="19" fill="#3cab9c"/>
    <rect x="3586" y="137" width="20" height="13" fill="#3cab9c"/>
    <rect x="3608" y="129" width="20" height="21" fill="#3cab9c"/>
    <rect x="3630" y="139" width="20" height="11" fill="#3cab9c"/>
    <rect x="3652" y="129" width="20" height="21" fill="#3cab9c"/>
    <rect x="3674" y="132" width="20" height="18" fill="#3cab9c"/>
    <rect x="3696" y="130" width="20" height="20" fill="#3cab9c"/>
    <rect x="3718" y="132" width="20" height="18" fill="#3cab9c"/>
    <rect x="3740" y="134" width="20" height="16" fill="#3cab9c"/>
    <rect x="3762" y="130" width="20" height="20" fill="#3cab9c"/>
    <rect x="3784" y="136" width="20" height="14" fill="#3cab9c"/>
    <rect x="3806" y="139" width="20" height="11" fill="#3cab9c"/>
    <rect x="3828" y="128" width="20" height="22" fill="#3cab9c"/>
    <rect x="3850" y="139" width="20" height="11" fill="#3cab9c"/>
    <rect x="3872" y="140" width="20" height="10" fill="#3cab9c"/>
    <rect x="3894" y="130" width="20" height="20" fill="#3cab9c"/>
    <rect x="3916" y="126" width="20" height="24" fill="#3cab9c"/>
    <rect x="3938" y="126" width="20" height="24" fill="#3cab9c"/>
    <rect x="3960" y="139" width="20" height="11" fill="#3cab9c"/>
    <rect x="3982" y="134" width="20" height="16" fill="#3cab9c"/>
    <rect x="4004" y="137" width="20" height="13" fill="#3cab9c"/>
    <rect x="4026" y="127" width="20" height="23" fill="#3cab9c"/>
    <rect x="4048" y="139" width="20" height="11" fill="#3cab9c"/>
    <rect x="4070" y="134" width="20" height="16" fill="#3cab9c"/>
    <rect x="4092" y="134" width="20" height="16" fill="#3cab9c"/>
    <rect x="4114" y="134" width="20" height="16" fill="#3cab9c"/>
    <rect x="4136" y="134" width="20" height="16" fill="#3cab9c"/>
    <rect x="4158" y="136" width="20" height="14" fill="#3cab9c"/>
    <rect x="4180" y="139" width="20" height="11" fill="#3cab9c"/>
    <rect x="4202" y="139" width="20" height="11" fill="#3cab9c"/>
    <rect x="4224" y="128" width="20" height="22" fill="#3cab9c"/>
    <rect x="4246" y="138" width="20" height="12" fill="#3cab9c"/>
    <rect x="4268" y="129" width="20" height="21" fill="#3cab9c"/>
    <rect x="4290" y="140" width="20" height="10" fill="#3cab9c"/>
    <rect x="4312" y="130" width="20" height="20" fill="#3cab9c"/>
    <rect x="4334" y="133" width="20" height="17" fill="#3cab9c"/>
    <rect x="4356" y="134" width="20" height="16" fill="#3cab9c"/>
    <rect x="4378" y="133" width="20" height="17" fill="#3cab9c"/>
    <rect x="4400" y="134" width="20" height="16" fill="#3cab9c"/>
    <rect x="4422" y="136" width="20" height="14" fill="#3cab9c"/>
    <rect x="4444" y="134" width="20" height="16" fill="#3cab9c"/>
    <rect x="4466" y="133" width="20" height="17" fill="#3cab9c"/>
    <rect x="4488" y="134" width="20" height="16" fill="#3cab9c"/>
    <rect x="4510" y="126" width="20" height="24" fill="#3cab9c"/>
    <rect x="4532" y="128" width="20" height="22" fill="#3cab9c"/>
    <rect x="4554" y="129" width="20" height="21" fill="#3cab9c"/>
    <rect x="4576" y="139" width="20" height="11" fill="#3cab9c"/>
    <rect x="4598" y="135" width="20" height="15" fill="#3cab9c"/>
    <rect x="4620" y="134" width="20" height="16" fill="#3cab9c"/>
    <rect x="4642" y="131" width="20" height="19" fill="#3cab9c"/>
    <rect x="4664" y="134" width="20" height="16" fill="#3cab9c"/>
    <rect x="4686" y="131" width="20" height="19" fill="#3cab9c"/>
    <rect x="4708" y="134" width="20" height="16" fill="#3cab9c"/>
    <rect x="4730" y="137" width="20" height="13" fill="#3cab9c"/>
    <rect x="4752" y="140" width="20" height="10" fill="#3cab9c"/>
    <rect x="4774" y="130" width="20" height="20" fill="#3cab9c"/>
    <rect x="4796" y="130" width="20" height="20" fill="#3cab9c"/>
    <rect x="4818" y="131" width="20" height="19" fill="#3cab9c"/>
    <rect x="4840" y="130" width="20" height="20" fill="#3cab9c"/>
    <rect x="4862" y="132" width="20" height="18" fill="#3cab9c"/>
    <rect x="4884" y="139" width="20" height="11" fill="#3cab9c"/>
    <rect x="4906" y="128" width="20" height="22" fill="#3cab9c"/>
    <rect x="4928" y="132" width="20" height="18" fill="#3cab9c"/>
    <rect x="4950" y="135" width="20" height="15" fill="#3cab9c"/>
    <rect x="4972" y="134" width="20" height="16" fill="#3cab9c"/>
    <rect x="4994" y="138" width="20" height="12" fill="#3cab9c"/>
</svg>